<svg width="120" height="38" fill="none" xmlns="http://www.w3.org/2000/svg"><path d="M110.135 0H9.535c-.367 0-.73 0-1.095.002-.306.002-.61.007-.919.012C6.85.022 6.18.078 5.517.182a6.912 6.912 0 00-1.9.596 6.435 6.435 0 00-1.62 1.12A6.055 6.055 0 00.195 5.245a11.743 11.743 0 00-.179 1.901c-.01.292-.01.584-.015.875v21.959c.005.295.006.58.015.875.008.638.068 1.274.18 1.902.11.63.32 1.24.624 1.81.303.568.701 1.086 1.179 1.533.473.453 1.019.831 1.618 1.12a6.95 6.95 0 001.901.599c.663.103 1.333.16 2.004.168.31.006.613.01.919.01.366.002.728.002 1.095.002h100.6c.359 0 .724 0 1.084-.002.304 0 .617-.004.922-.01a13.97 13.97 0 002-.168 7.059 7.059 0 001.908-.6 6.29 6.29 0 001.617-1.119c.476-.45.875-.967 1.182-1.534.302-.57.51-1.18.619-1.809.111-.628.173-1.264.185-1.902.004-.295.004-.58.004-.875.008-.345.008-.689.008-1.04V9.06c0-.347 0-.693-.008-1.037 0-.291 0-.583-.004-.875a12.266 12.266 0 00-.185-1.902 6.096 6.096 0 00-.619-1.808 6.317 6.317 0 00-2.799-2.66 7.022 7.022 0 00-1.908-.595c-.661-.105-1.33-.161-2-.168-.305-.005-.618-.01-.922-.012-.36-.002-.725-.002-1.084-.002z" fill="#A6A6A6"/><path d="M8.445 37.169c-.305 0-.602-.004-.904-.01a13.346 13.346 0 01-1.87-.155 6.1 6.1 0 01-1.656-.52 5.404 5.404 0 01-1.397-.967 5.075 5.075 0 01-1.02-1.326 5.248 5.248 0 01-.544-1.575 11.218 11.218 0 01-.166-1.78c-.007-.201-.015-.868-.015-.868V8.022s.009-.657.015-.85c.007-.596.063-1.19.165-1.778.096-.55.279-1.082.544-1.58.26-.49.603-.94 1.015-1.327.411-.392.884-.72 1.402-.972A6.04 6.04 0 015.668 1C6.288.902 6.915.85 7.543.843L8.445.83h102.769l.913.012c.623.007 1.244.059 1.858.155.581.094 1.145.269 1.671.52a5.457 5.457 0 012.415 2.3c.261.493.441 1.02.536 1.566.103.592.161 1.192.173 1.793.003.269.003.558.003.845.008.356.008.695.008 1.037v19.883c0 .345 0 .681-.008 1.021 0 .309 0 .592-.004.883-.011.59-.068 1.179-.171 1.761a5.241 5.241 0 01-.54 1.587 5.22 5.22 0 01-1.015 1.316 5.41 5.41 0 01-1.4.971 6.07 6.07 0 01-1.668.523c-.618.096-1.242.147-1.869.155-.293.006-.599.01-.897.01l-1.084.002-101.69-.002z" fill="#000"/><path d="M24.769 19.286a4.52 4.52 0 01.645-2.26 4.82 4.82 0 011.712-1.685 4.991 4.991 0 00-1.741-1.473 5.272 5.272 0 00-2.25-.577c-1.68-.167-3.308.955-4.164.955-.872 0-2.19-.938-3.608-.91a5.522 5.522 0 00-2.596.736 5.175 5.175 0 00-1.877 1.855c-1.934 3.181-.491 7.856 1.361 10.428.927 1.259 2.01 2.665 3.428 2.615 1.387-.054 1.905-.84 3.58-.84 1.658 0 2.144.84 3.59.809 1.489-.023 2.426-1.265 3.32-2.536a10.208 10.208 0 001.52-2.938 4.734 4.734 0 01-2.122-1.672 4.383 4.383 0 01-.798-2.507zM22.037 11.6a4.477 4.477 0 001.115-3.316 5.047 5.047 0 00-3.208 1.577c-.402.435-.71.94-.906 1.489a4.198 4.198 0 00-.237 1.704 4.281 4.281 0 001.794-.373 4.074 4.074 0 001.442-1.08zM42.302 25.783H37.57l-1.137 3.188h-2.005l4.484-11.797h2.083l4.483 11.797h-2.039l-1.136-3.188zM38.06 24.31h3.752l-1.85-5.175h-.051l-1.85 5.175zM55.16 24.671c0 2.673-1.506 4.39-3.779 4.39a3.2 3.2 0 01-1.652-.363 2.996 2.996 0 01-1.196-1.141h-.043v4.26H46.63V20.37h1.8v1.431h.033a3.14 3.14 0 011.22-1.139 3.347 3.347 0 011.663-.382c2.298 0 3.813 1.726 3.813 4.391zm-1.91 0c0-1.741-.948-2.886-2.393-2.886-1.42 0-2.375 1.17-2.375 2.886 0 1.733.955 2.894 2.375 2.894 1.445 0 2.392-1.137 2.392-2.894zM65.124 24.671c0 2.673-1.505 4.39-3.778 4.39a3.2 3.2 0 01-1.652-.363 2.996 2.996 0 01-1.196-1.141h-.043v4.26h-1.859V20.37h1.799v1.431h.034a3.14 3.14 0 011.22-1.139 3.347 3.347 0 011.663-.382c2.298 0 3.813 1.726 3.813 4.391zm-1.91 0c0-1.741-.947-2.886-2.392-2.886-1.42 0-2.375 1.17-2.375 2.886 0 1.733.955 2.894 2.375 2.894 1.445 0 2.392-1.137 2.392-2.894zM71.71 25.684c.138 1.17 1.335 1.938 2.97 1.938 1.566 0 2.693-.768 2.693-1.823 0-.915-.68-1.464-2.29-1.84l-1.609-.368c-2.28-.523-3.339-1.536-3.339-3.18 0-2.035 1.867-3.434 4.519-3.434 2.624 0 4.423 1.399 4.483 3.434h-1.876c-.112-1.177-1.136-1.888-2.634-1.888-1.497 0-2.521.72-2.521 1.766 0 .834.654 1.324 2.255 1.7l1.368.32c2.548.572 3.606 1.544 3.606 3.27 0 2.207-1.85 3.589-4.793 3.589-2.754 0-4.614-1.35-4.734-3.484h1.902zM83.346 18.335v2.035h1.722v1.398h-1.722v4.742c0 .737.345 1.08 1.102 1.08.204-.003.408-.017.611-.04v1.389c-.34.06-.686.088-1.032.082-1.833 0-2.548-.655-2.548-2.323v-4.93h-1.316V20.37h1.316v-2.035h1.867zM86.065 24.671c0-2.706 1.678-4.406 4.294-4.406 2.625 0 4.295 1.7 4.295 4.406 0 2.714-1.661 4.407-4.295 4.407-2.633 0-4.294-1.693-4.294-4.407zm6.695 0c0-1.856-.895-2.952-2.401-2.952-1.506 0-2.4 1.104-2.4 2.952 0 1.864.894 2.951 2.4 2.951 1.506 0 2.401-1.087 2.401-2.95zM96.186 20.37h1.772v1.464h.043c.12-.457.402-.86.799-1.144a2.238 2.238 0 011.379-.41c.214 0 .428.022.637.066v1.652a2.723 2.723 0 00-.835-.107c-.27-.01-.54.035-.789.133-.25.097-.474.245-.658.433a1.761 1.761 0 00-.408.656 1.696 1.696 0 00-.082.757v5.101h-1.858v-8.6zM109.384 26.445c-.25 1.561-1.85 2.633-3.898 2.633-2.634 0-4.269-1.676-4.269-4.366 0-2.698 1.644-4.447 4.191-4.447 2.505 0 4.08 1.634 4.08 4.242v.605h-6.395v.107c-.029.316.012.635.123.935.11.3.286.575.516.805.231.23.51.412.82.532.309.12.643.176.977.164.439.039.88-.058 1.256-.276.377-.218.67-.545.835-.934h1.764zm-6.282-2.567h4.526a1.964 1.964 0 00-.133-.836 2.055 2.055 0 00-.475-.716 2.177 2.177 0 00-.737-.476 2.275 2.275 0 00-.875-.155 2.398 2.398 0 00-.883.163 2.3 2.3 0 00-.749.472 2.183 2.183 0 00-.5.71c-.116.266-.175.55-.174.838zM37.826 8.295c.39-.027.78.029 1.145.163.364.135.692.344.96.614.27.269.472.592.593.945.121.352.159.726.11 1.094 0 1.811-1.03 2.852-2.808 2.852h-2.155V8.295h2.155zm-1.228 4.866h1.125c.278.016.557-.027.815-.127.259-.099.49-.252.68-.447.188-.195.328-.428.41-.681.082-.254.103-.521.063-.783a1.702 1.702 0 00-.07-.778 1.768 1.768 0 00-.411-.677 1.886 1.886 0 00-.676-.444 1.97 1.97 0 00-.811-.128h-1.125v4.065zM41.68 11.822a1.93 1.93 0 01.1-.832c.094-.268.246-.515.446-.724.2-.209.443-.376.715-.49a2.23 2.23 0 011.726 0c.272.114.516.281.716.49.2.21.351.456.445.723.094.268.128.552.1.833.029.282-.005.566-.098.834a2.007 2.007 0 01-.446.725c-.2.209-.444.376-.716.49a2.228 2.228 0 01-1.728 0 2.133 2.133 0 01-.716-.49c-.2-.21-.351-.457-.445-.725a1.932 1.932 0 01-.098-.834zm3.334 0c0-.927-.439-1.47-1.208-1.47-.773 0-1.207.543-1.207 1.47 0 .935.434 1.473 1.207 1.473.77 0 1.208-.542 1.208-1.473zM51.573 13.963h-.922l-.93-3.15h-.07l-.927 3.15h-.913l-1.242-4.278h.902l.806 3.264h.067l.925-3.264h.853l.926 3.264h.07l.803-3.264h.889l-1.237 4.278zM53.853 9.685h.856v.68h.066c.113-.244.303-.45.544-.586.24-.136.52-.198.8-.177.22-.015.44.016.644.092.205.076.388.195.538.348.15.153.261.336.327.535.065.2.082.41.05.617v2.769h-.889v-2.557c0-.688-.314-1.03-.972-1.03a1.083 1.083 0 00-.435.07 1.038 1.038 0 00-.364.238.972.972 0 00-.228.36.935.935 0 00-.048.416v2.503h-.889V9.685zM59.094 8.015h.888v5.948h-.888V8.015zM61.218 11.822a1.933 1.933 0 01.1-.833c.093-.268.245-.514.445-.723.2-.209.444-.376.715-.49a2.23 2.23 0 011.727 0c.272.114.515.281.715.49.2.21.352.455.446.723.094.268.128.552.1.833.028.282-.005.566-.099.834a2.007 2.007 0 01-.445.725c-.2.21-.444.376-.716.49a2.23 2.23 0 01-1.729 0 2.133 2.133 0 01-.716-.49c-.2-.21-.351-.457-.445-.725a1.933 1.933 0 01-.098-.834zm3.333 0c0-.927-.439-1.47-1.208-1.47-.773 0-1.207.543-1.207 1.47 0 .935.434 1.473 1.207 1.473.77 0 1.208-.542 1.208-1.473zM66.4 12.753c0-.77.604-1.214 1.676-1.277l1.22-.067v-.369c0-.452-.315-.707-.922-.707-.497 0-.84.173-.939.476h-.86c.09-.735.818-1.206 1.84-1.206 1.128 0 1.765.534 1.765 1.437v2.923h-.855v-.601h-.07a1.488 1.488 0 01-.581.51 1.582 1.582 0 01-.772.162c-.19.018-.38-.001-.561-.057a1.378 1.378 0 01-.489-.267 1.296 1.296 0 01-.332-.433 1.236 1.236 0 01-.12-.524zm2.895-.365v-.358l-1.1.067c-.62.04-.9.24-.9.617 0 .385.351.609.834.609a1.113 1.113 0 00.792-.233c.109-.087.198-.194.262-.315a.97.97 0 00.112-.387zM71.348 11.822c0-1.351.732-2.208 1.87-2.208.28-.012.56.052.804.185.245.133.445.329.576.566h.067v-2.35h.888v5.948h-.851v-.676h-.07a1.528 1.528 0 01-.598.56c-.25.132-.532.197-.817.187-1.145 0-1.869-.857-1.869-2.212zm.918 0c0 .908.45 1.454 1.203 1.454.75 0 1.212-.554 1.212-1.45 0-.892-.468-1.453-1.212-1.453-.748 0-1.203.55-1.203 1.45zM79.23 11.822a1.932 1.932 0 01.1-.832c.093-.268.245-.515.445-.724.2-.209.444-.376.715-.49a2.23 2.23 0 011.727 0c.272.114.515.281.715.49.2.21.352.456.446.723.094.268.127.552.1.833.028.282-.005.566-.1.834a2.007 2.007 0 01-.444.725c-.2.209-.444.376-.716.49a2.228 2.228 0 01-1.728 0 2.131 2.131 0 01-.716-.49c-.2-.21-.352-.457-.446-.725a1.932 1.932 0 01-.098-.834zm3.333 0c0-.927-.439-1.47-1.208-1.47-.772 0-1.207.543-1.207 1.47 0 .935.435 1.473 1.207 1.473.77 0 1.208-.542 1.208-1.473zM84.67 9.685h.855v.68h.066c.113-.244.303-.45.544-.586.24-.136.52-.198.8-.177.22-.015.44.016.644.092.204.076.388.195.538.348.15.153.261.336.326.535.066.2.083.41.05.617v2.769h-.888v-2.557c0-.688-.314-1.03-.972-1.03a1.084 1.084 0 00-.435.07 1.038 1.038 0 00-.364.238.973.973 0 00-.228.36.936.936 0 00-.048.416v2.503h-.889V9.685zM93.515 8.62v1.085h.976v.71h-.976v2.2c0 .448.195.645.637.645.113 0 .226-.007.339-.02v.704a3.07 3.07 0 01-.484.043c-.988 0-1.382-.33-1.382-1.155v-2.416h-.714v-.711h.715V8.62h.89zM95.705 8.015h.88v2.358h.07c.119-.247.314-.452.56-.59.245-.137.53-.199.814-.177.218-.01.436.024.638.102.202.078.384.197.532.35.148.152.259.333.325.53.066.199.085.408.056.613v2.762h-.89v-2.554c0-.683-.335-1.029-.963-1.029a1.103 1.103 0 00-.45.058 1.06 1.06 0 00-.382.234.995.995 0 00-.243.364.954.954 0 00-.059.429v2.498h-.888V8.015zM104.761 12.808c-.12.391-.382.73-.739.955a1.901 1.901 0 01-1.212.283 2.143 2.143 0 01-.864-.159 2.051 2.051 0 01-.714-.488 1.923 1.923 0 01-.432-.728 1.854 1.854 0 01-.07-.833 1.893 1.893 0 01.071-.836c.087-.27.234-.52.43-.732.197-.212.44-.381.711-.496.272-.115.567-.174.864-.171 1.253 0 2.009.813 2.009 2.156v.295h-3.18v.047a1.08 1.08 0 00.061.464c.055.149.141.285.254.4.113.116.25.208.402.27.152.062.317.093.483.092.212.024.428-.013.618-.105.191-.092.349-.236.453-.414h.855zm-3.126-1.379h2.275a1.015 1.015 0 00-.296-.787 1.086 1.086 0 00-.371-.242 1.135 1.135 0 00-.442-.079 1.2 1.2 0 00-.829.32 1.103 1.103 0 00-.252.362c-.058.135-.087.28-.085.426z" fill="#fff"/></svg>