<svg width="135" height="39" fill="none" xmlns="http://www.w3.org/2000/svg"><path d="M130 39H5c-2.75 0-5-2.194-5-4.875V4.875C0 2.194 2.25 0 5 0h125c2.75 0 5 2.194 5 4.875v29.25c0 2.681-2.25 4.875-5 4.875z" fill="#000"/><path d="M130 .78c2.32 0 4.2 1.833 4.2 4.095v29.25c0 2.262-1.88 4.095-4.2 4.095H5c-2.32 0-4.2-1.833-4.2-4.095V4.875C.8 2.613 2.68.78 5 .78h125zm0-.78H5C2.25 0 0 2.194 0 4.875v29.25C0 36.806 2.25 39 5 39h125c2.75 0 5-2.194 5-4.875V4.875C135 2.194 132.75 0 130 0z" fill="#A6A6A6"/><path d="M47.42 9.984c0 .819-.25 1.472-.75 1.95-.56.575-1.3.868-2.2.868-.87 0-1.6-.293-2.21-.878-.61-.585-.91-1.316-.91-2.174 0-.868.3-1.59.91-2.174.61-.585 1.34-.878 2.21-.878.43 0 .84.078 1.23.244.39.166.7.38.94.653l-.53.517c-.4-.458-.94-.692-1.64-.692-.63 0-1.18.214-1.64.653-.46.429-.69.994-.69 1.687 0 .692.23 1.257.69 1.686.46.43 1.01.654 1.64.654.67 0 1.23-.215 1.68-.654.29-.282.46-.682.5-1.19h-2.18v-.701h2.91c.02.146.04.292.04.429zM52.03 7.546H49.3V9.4h2.46v.702H49.3v1.852h2.73v.722h-3.5v-5.85h3.5v.721zM55.28 12.675h-.77V7.546h-1.68v-.721h4.12v.721h-1.68v5.129h.01zM59.94 12.675v-5.85h.77v5.85h-.77zM64.13 12.675h-.77V7.546h-1.68v-.721h4.12v.721h-1.68v5.129h.01zM73.61 11.914c-.59.595-1.32.888-2.2.888-.88 0-1.61-.293-2.2-.888-.59-.594-.88-1.316-.88-2.164 0-.848.29-1.58.88-2.165.59-.594 1.32-.887 2.2-.887.87 0 1.6.293 2.2.887.59.595.89 1.317.89 2.165-.01.858-.3 1.58-.89 2.164zm-3.83-.487c.44.439.99.653 1.63.653.64 0 1.19-.214 1.63-.653.44-.439.67-.995.67-1.677 0-.683-.22-1.238-.67-1.677-.44-.439-.99-.653-1.63-.653-.64 0-1.19.214-1.63.653-.44.439-.67.994-.67 1.677 0 .682.23 1.238.67 1.677zM75.58 12.675v-5.85h.94l2.92 4.553h.03l-.03-1.13V6.824h.77v5.85h-.8l-3.05-4.768h-.03l.03 1.131v3.637h-.78z" fill="#fff" stroke="#fff" stroke-width=".2" stroke-miterlimit="10"/><path d="M68.14 21.206c-2.35 0-4.27 1.745-4.27 4.144 0 2.389 1.92 4.144 4.27 4.144 2.35 0 4.27-1.755 4.27-4.144 0-2.399-1.92-4.144-4.27-4.144zm0 6.66c-1.29 0-2.4-1.034-2.4-2.516 0-1.492 1.11-2.516 2.4-2.516 1.29 0 2.4 1.024 2.4 2.516 0 1.482-1.12 2.515-2.4 2.515zm-9.32-6.66c-2.35 0-4.27 1.745-4.27 4.144 0 2.389 1.92 4.144 4.27 4.144 2.35 0 4.27-1.755 4.27-4.144 0-2.399-1.92-4.144-4.27-4.144zm0 6.66c-1.29 0-2.4-1.034-2.4-2.516 0-1.492 1.11-2.516 2.4-2.516 1.29 0 2.4 1.024 2.4 2.516 0 1.482-1.11 2.515-2.4 2.515zm-11.08-5.383v1.755h4.32c-.13.985-.47 1.716-.98 2.214-.63.614-1.61 1.287-3.33 1.287-2.66 0-4.74-2.087-4.74-4.68 0-2.594 2.08-4.68 4.74-4.68 1.43 0 2.48.546 3.25 1.257l1.27-1.238c-1.08-1.004-2.51-1.774-4.53-1.774-3.64 0-6.7 2.886-6.7 6.444 0 3.55 3.06 6.445 6.7 6.445 1.97 0 3.45-.624 4.61-1.804 1.19-1.16 1.56-2.798 1.56-4.114 0-.41-.03-.79-.1-1.102h-6.07v-.01zm45.31 1.365c-.35-.926-1.43-2.642-3.64-2.642-2.19 0-4.01 1.677-4.01 4.144 0 2.32 1.8 4.144 4.22 4.144 1.95 0 3.08-1.16 3.54-1.833l-1.45-.946c-.48.692-1.14 1.15-2.09 1.15s-1.63-.428-2.06-1.257l5.69-2.291-.2-.469zm-5.8 1.385a2.298 2.298 0 012.22-2.418c.74 0 1.37.36 1.58.877l-3.8 1.541zm-4.62 4.017h1.87V17.062h-1.87V29.25zm-3.06-7.118h-.07c-.42-.487-1.22-.926-2.24-.926-2.13 0-4.08 1.823-4.08 4.163 0 2.321 1.95 4.134 4.08 4.134 1.01 0 1.82-.438 2.24-.945h.06v.595c0 1.589-.87 2.437-2.27 2.437-1.14 0-1.85-.8-2.14-1.472l-1.63.663c.47 1.102 1.71 2.447 3.77 2.447 2.19 0 4.04-1.258 4.04-4.32V21.46h-1.77v.672h.01zm-2.15 5.733c-1.29 0-2.37-1.052-2.37-2.495 0-1.463 1.08-2.526 2.37-2.526 1.27 0 2.27 1.073 2.27 2.525.01 1.444-.99 2.497-2.27 2.497zm24.39-10.803h-4.47V29.25h1.87v-4.622h2.61c2.07 0 4.1-1.462 4.1-3.783 0-2.32-2.05-3.783-4.11-3.783zm.04 5.87H99.2v-4.183h2.65a2.14 2.14 0 012.19 2.087c0 .955-.79 2.096-2.19 2.096zm11.54-1.745c-1.35 0-2.75.585-3.33 1.862l1.66.673c.35-.673 1.01-.897 1.7-.897.96 0 1.95.565 1.96 1.57v.126a4.261 4.261 0 00-1.95-.468c-1.79 0-3.6.956-3.6 2.74 0 1.628 1.46 2.681 3.1 2.681 1.25 0 1.95-.546 2.38-1.19h.06v.947h1.8v-4.67c.01-2.165-1.65-3.374-3.78-3.374zm-.23 6.678c-.61 0-1.46-.302-1.46-1.033 0-.936 1.06-1.297 1.98-1.297.82 0 1.21.176 1.7.41-.14 1.121-1.14 1.92-2.22 1.92zm10.58-6.415l-2.14 5.285h-.06l-2.22-5.285h-2.01l3.33 7.39-1.9 4.105h1.95l5.13-11.495h-2.08zm-16.8 7.8h1.87V17.062h-1.87V29.25z" fill="#fff"/><path d="M10.44 7.351c-.29.303-.46.77-.46 1.365v21.567c0 .605.17 1.073.46 1.365l.07.069 12.39-12.07v-.293L10.51 7.284l-.07.067z" fill="url(#paint0_linear)"/><path d="M27.03 23.673l-4.13-4.027v-.292l4.13-4.027.09.049 4.89 2.71c1.4.77 1.4 2.038 0 2.818l-4.89 2.71-.09.059z" fill="url(#paint1_linear)"/><path d="M27.12 23.614L22.9 19.5 10.44 31.648c.46.478 1.22.537 2.08.059l14.6-8.093z" fill="url(#paint2_linear)"/><path d="M27.12 15.386L12.51 7.293c-.86-.478-1.62-.42-2.08.059L22.9 19.5l4.22-4.114z" fill="url(#paint3_linear)"/><path opacity=".2" d="M27.03 23.527L12.51 31.57c-.81.449-1.54.42-2 .01l-.07.068.07.069c.47.41 1.19.438 2-.01l14.61-8.093-.09-.087z" fill="#000"/><path opacity=".12" d="M10.44 31.512c-.29-.302-.46-.77-.46-1.365v.147c0 .604.17 1.072.46 1.364l.07-.068-.07-.078zM32.01 20.767l-4.99 2.76.09.088L32 20.904c.7-.39 1.05-.897 1.05-1.404-.05.458-.4.916-1.04 1.267z" fill="#000"/><path opacity=".25" d="M12.51 7.429l19.5 10.803c.63.35.99.8 1.05 1.267 0-.507-.35-1.023-1.05-1.404L12.51 7.292c-1.4-.77-2.54-.126-2.54 1.434v.146c0-1.57 1.15-2.213 2.54-1.443z" fill="#fff"/><defs><linearGradient id="paint0_linear" x1="21.8" y1="8.492" x2="5.442" y2="25.269" gradientUnits="userSpaceOnUse"><stop stop-color="#00A0FF"/><stop offset=".007" stop-color="#00A1FF"/><stop offset=".26" stop-color="#00BEFF"/><stop offset=".512" stop-color="#00D2FF"/><stop offset=".76" stop-color="#00DFFF"/><stop offset="1" stop-color="#00E3FF"/></linearGradient><linearGradient id="paint1_linear" x1="33.834" y1="19.501" x2="9.637" y2="19.501" gradientUnits="userSpaceOnUse"><stop stop-color="#FFE000"/><stop offset=".409" stop-color="#FFBD00"/><stop offset=".775" stop-color="orange"/><stop offset="1" stop-color="#FF9C00"/></linearGradient><linearGradient id="paint2_linear" x1="24.827" y1="21.739" x2="2.645" y2="44.49" gradientUnits="userSpaceOnUse"><stop stop-color="#FF3A44"/><stop offset="1" stop-color="#C31162"/></linearGradient><linearGradient id="paint3_linear" x1="7.297" y1=".172" x2="17.203" y2="10.331" gradientUnits="userSpaceOnUse"><stop stop-color="#32A071"/><stop offset=".069" stop-color="#2DA771"/><stop offset=".476" stop-color="#15CF74"/><stop offset=".801" stop-color="#06E775"/><stop offset="1" stop-color="#00F076"/></linearGradient></defs></svg>